G04 #@! TF.GenerationSoftware,KiCad,Pcbnew,6.0.4-6f826c9f35~116~ubuntu20.04.1*
G04 #@! TF.CreationDate,2022-05-16T14:00:24-07:00*
G04 #@! TF.ProjectId,ethernet-pmod,65746865-726e-4657-942d-706d6f642e6b,1.0*
G04 #@! TF.SameCoordinates,Original*
G04 #@! TF.FileFunction,Paste,Top*
G04 #@! TF.FilePolarity,Positive*
%FSLAX46Y46*%
G04 Gerber Fmt 4.6, Leading zero omitted, Abs format (unit mm)*
G04 Created by KiCad (PCBNEW 6.0.4-6f826c9f35~116~ubuntu20.04.1) date 2022-05-16 14:00:24*
%MOMM*%
%LPD*%
G01*
G04 APERTURE LIST*
G04 Aperture macros list*
%AMRoundRect*
0 Rectangle with rounded corners*
0 $1 Rounding radius*
0 $2 $3 $4 $5 $6 $7 $8 $9 X,Y pos of 4 corners*
0 Add a 4 corners polygon primitive as box body*
4,1,4,$2,$3,$4,$5,$6,$7,$8,$9,$2,$3,0*
0 Add four circle primitives for the rounded corners*
1,1,$1+$1,$2,$3*
1,1,$1+$1,$4,$5*
1,1,$1+$1,$6,$7*
1,1,$1+$1,$8,$9*
0 Add four rect primitives between the rounded corners*
20,1,$1+$1,$2,$3,$4,$5,0*
20,1,$1+$1,$4,$5,$6,$7,0*
20,1,$1+$1,$6,$7,$8,$9,0*
20,1,$1+$1,$8,$9,$2,$3,0*%
G04 Aperture macros list end*
%ADD10RoundRect,0.062500X-0.350000X0.062500X-0.350000X-0.062500X0.350000X-0.062500X0.350000X0.062500X0*%
%ADD11RoundRect,0.062500X-0.062500X0.350000X-0.062500X-0.350000X0.062500X-0.350000X0.062500X0.350000X0*%
%ADD12RoundRect,0.250000X-0.315000X0.315000X-0.315000X-0.315000X0.315000X-0.315000X0.315000X0.315000X0*%
%ADD13RoundRect,0.147500X-0.147500X-0.172500X0.147500X-0.172500X0.147500X0.172500X-0.147500X0.172500X0*%
%ADD14RoundRect,0.147500X-0.172500X0.147500X-0.172500X-0.147500X0.172500X-0.147500X0.172500X0.147500X0*%
%ADD15RoundRect,0.147500X0.172500X-0.147500X0.172500X0.147500X-0.172500X0.147500X-0.172500X-0.147500X0*%
%ADD16RoundRect,0.218750X0.218750X0.256250X-0.218750X0.256250X-0.218750X-0.256250X0.218750X-0.256250X0*%
%ADD17RoundRect,0.218750X-0.256250X0.218750X-0.256250X-0.218750X0.256250X-0.218750X0.256250X0.218750X0*%
%ADD18RoundRect,0.243750X0.456250X-0.243750X0.456250X0.243750X-0.456250X0.243750X-0.456250X-0.243750X0*%
%ADD19RoundRect,0.147500X0.147500X0.172500X-0.147500X0.172500X-0.147500X-0.172500X0.147500X-0.172500X0*%
G04 APERTURE END LIST*
D10*
X74537500Y-62350000D03*
X74537500Y-62850000D03*
X74537500Y-63350000D03*
X74537500Y-63850000D03*
X74537500Y-64350000D03*
X74537500Y-64850000D03*
D11*
X73850000Y-65537500D03*
X73350000Y-65537500D03*
X72850000Y-65537500D03*
X72350000Y-65537500D03*
X71850000Y-65537500D03*
X71350000Y-65537500D03*
D10*
X70662500Y-64850000D03*
X70662500Y-64350000D03*
X70662500Y-63850000D03*
X70662500Y-63350000D03*
X70662500Y-62850000D03*
X70662500Y-62350000D03*
D11*
X71350000Y-61662500D03*
X71850000Y-61662500D03*
X72350000Y-61662500D03*
X72850000Y-61662500D03*
X73350000Y-61662500D03*
X73850000Y-61662500D03*
D12*
X73250000Y-62950000D03*
X71950000Y-62950000D03*
X73250000Y-64250000D03*
X71950000Y-64250000D03*
D13*
X70115000Y-60000000D03*
X71085000Y-60000000D03*
D14*
X67360650Y-62364789D03*
X67360650Y-63334789D03*
X74676000Y-58974000D03*
X74676000Y-59944000D03*
D15*
X82296000Y-69111000D03*
X82296000Y-70081000D03*
D13*
X70115000Y-58600000D03*
X71085000Y-58600000D03*
D16*
X76200000Y-67056000D03*
X77775000Y-67056000D03*
D17*
X73660000Y-69596000D03*
X73660000Y-71171000D03*
D18*
X76200000Y-71041500D03*
X76200000Y-69166500D03*
D14*
X82296000Y-64515000D03*
X82296000Y-65485000D03*
X82296000Y-59715000D03*
X82296000Y-60685000D03*
D15*
X82296000Y-63085000D03*
X82296000Y-62115000D03*
D13*
X76115000Y-62000000D03*
X77085000Y-62000000D03*
D15*
X82296000Y-72621000D03*
X82296000Y-71651000D03*
X66039251Y-62216781D03*
X66039251Y-61246781D03*
D14*
X66048934Y-58906591D03*
X66048934Y-59876591D03*
X64000743Y-63327326D03*
X64000743Y-64297326D03*
X65262674Y-63327326D03*
X65262674Y-64297326D03*
X82296000Y-55926000D03*
X82296000Y-56896000D03*
D19*
X77216000Y-65509000D03*
X76246000Y-65509000D03*
D15*
X58400000Y-71570000D03*
X58400000Y-70600000D03*
X82296000Y-67885000D03*
X82296000Y-66915000D03*
D14*
X68627228Y-63337560D03*
X68627228Y-62367560D03*
M02*
