M48
; DRILL file {KiCad 6.0.4-6f826c9f35~116~ubuntu20.04.1} date Mon 16 May 2022 01:03:08 PM PDT
; FORMAT={-:-/ absolute / inch / decimal}
; #@! TF.CreationDate,2022-05-16T13:03:08-07:00
; #@! TF.GenerationSoftware,Kicad,Pcbnew,6.0.4-6f826c9f35~116~ubuntu20.04.1
; #@! TF.FileFunction,Plated,1,2,PTH
FMAT,2
INCH
; #@! TA.AperFunction,Plated,PTH,ComponentDrill
T1C0.0079
; #@! TA.AperFunction,Plated,PTH,ViaDrill
T2C0.0157
; #@! TA.AperFunction,Plated,PTH,ComponentDrill
T3C0.0350
; #@! TA.AperFunction,Plated,PTH,ComponentDrill
T4C0.0354
; #@! TA.AperFunction,Plated,PTH,ComponentDrill
T5C0.0394
; #@! TA.AperFunction,Plated,PTH,ComponentDrill
T6C0.0630
%
G90
G05
T1
X2.8169Y-2.4626
X2.8169Y-2.5039
X2.8169Y-2.5453
X2.8583Y-2.4626
X2.8583Y-2.5039
X2.8583Y-2.5453
X2.8996Y-2.4626
X2.8996Y-2.5039
X2.8996Y-2.5453
T2
X2.28Y-2.5
X2.56Y-2.3492
X2.56Y-2.42
X2.6513Y-2.42
X2.6799Y-2.6989
X2.689Y-2.5761
X2.7008Y-2.7323
X2.7023Y-2.42
X2.72Y-2.3
X2.72Y-2.34
X2.7264Y-2.5886
X2.9Y-2.7
X2.94Y-2.28
X3.0787Y-2.4409
X3.08Y-2.58
X3.12Y-2.64
X3.2Y-2.78
X3.2Y-2.82
T3
X3.8577Y-2.251
X3.8577Y-2.649
X3.9175Y-2.351
X3.9175Y-2.749
T4
X3.375Y-2.325
X3.375Y-2.425
X3.375Y-2.525
X3.375Y-2.625
X3.475Y-2.375
X3.475Y-2.475
X3.475Y-2.575
X3.475Y-2.675
T5
X2.0775Y-2.25
X2.0775Y-2.35
X2.0775Y-2.45
X2.0775Y-2.55
X2.0775Y-2.65
X2.0775Y-2.75
X2.1775Y-2.25
X2.1775Y-2.35
X2.1775Y-2.45
X2.1775Y-2.55
X2.1775Y-2.65
X2.1775Y-2.75
X2.3961Y-2.7795
X2.4961Y-2.7795
X2.5961Y-2.7795
T6
X3.6045Y-2.1939
X3.6045Y-2.8061
T0
M30
